Full Credits To:

#### ##       ##       ##     ##  ######  ####  #######  ##    ## 
 ##  ##       ##       ##     ## ##    ##  ##  ##     ## ###   ## 
 ##  ##       ##       ##     ## ##        ##  ##     ## ####  ## 
 ##  ##       ##       ##     ##  ######   ##  ##     ## ## ## ## 
 ##  ##       ##       ##     ##       ##  ##  ##     ## ##  #### 
 ##  ##       ##       ##     ## ##    ##  ##  ##     ## ##   ### 
#### ######## ########  #######   ######  ####  #######  ##    ## 


Movie Info
Plot: A young woman, after witnessing her parents' 
murder as a child in Bogota, grows up to be a stone-cold assassin. 
IMDB:  
http://www.imdb.com/title/tt1657507/
IMDB Rating: 5.9




General Info
Size: 1.44GB
Format: AVI
Runtime: 1:47:49



Sources
Video - Colombiana.2011.KORSUB.720p.HDRip.x264.AC3-ZERO
Audio - Colombiana.2011.KORSUB.720p.HDRip.x264.AC3-ZERO
(Thanks)



Video Info
ID : 0
 Format : MPEG-4 Visual
 Format profile : Advanced Simple@L5
 Format settings, BVOP : 2
 Format settings, QPel : No
 Format settings, GMC : No warppoints
 Format settings, Matrix : Default (H.263)
 Muxing mode : Packed bitstream
 Codec ID : XVID
 Codec ID/Hint : XviD
 Duration : 1h 47mn
 Bit rate : 1 717 Kbps
 Width : 720 pixels
 Height : 304 pixels
 Display aspect ratio : 2.35:1
 Frame rate : 29.970 fps
 Color space : YUV
 Chroma subsampling : 4:2:0
 Bit depth : 8 bits
 Scan type : Progressive
 Compression mode : Lossy
 Bits/(Pixel*Frame) : 0.262
 Stream size : 1.29 GiB (89%)
 Writing library : XviD 58



Audio Info
ID : 1
 Format : AC-3
 Format/Info : Audio Coding 3
 Mode extension : CM (complete main)
 Codec ID : 2000
 Duration : 1h 47mn
 Bit rate mode : Constant
 Bit rate : 192 Kbps
 Channel(s) : 2 channels
 Channel positions : Front: L R
 Sampling rate : 48.0 KHz
 Bit depth : 16 bits
 Compression mode : Lossy
 Stream size : 148 MiB (10%)
 Alignment : Split accross interleaves
 Interleave, duration : 33 ms (1.00 video frame)
 Interleave, preload duration : 500 ms


 Encoders Notes
 I cropped & resized,lowered the brightness, 
 increased the saturation, contrast & gamma,
 then i lightly de-noised & sharpened it.
 Overal its ok better than a R1 dvdrip imo.
 I left the subs alone as i didnt want to make the video worse.
 I would of released it earlier but i was busy.
 Theres a sample included, enjoy...


 I am looking for:
 Cammers, Cams, Screeners (any type), Cam audio, Line audio, 
 Un-released DVD-R's (any region) & PPVRiP's. 
 If you can provide any of these please
 contact me at illusion@hushmail.me


Screen Shots:
 
http://shareimage.org/images/edy87gk9nx7m74d4lm3f.jpg
 
http://shareimage.org/images/js0d8k4v3zhzni8u1c.jpg
 
http://shareimage.org/images/o3pgnivhgxgfj5np60uc.jpg
 
http://shareimage.org/images/lnsj450h0fej21zfxuwk.jpg
 
http://shareimage.org/images/fn4g7wnxwqd2oe4xf9wt.jpg
 
http://shareimage.org/images/vj5xk2rgiftxw2drpaia.jpg


Full Credits To:

#### ##       ##       ##     ##  ######  ####  #######  ##    ## 
 ##  ##       ##       ##     ## ##    ##  ##  ##     ## ###   ## 
 ##  ##       ##       ##     ## ##        ##  ##     ## ####  ## 
 ##  ##       ##       ##     ##  ######   ##  ##     ## ## ## ## 
 ##  ##       ##       ##     ##       ##  ##  ##     ## ##  #### 
 ##  ##       ##       ##     ## ##    ##  ##  ##     ## ##   ### 
#### ######## ########  #######   ######  ####  #######  ##    ## 